<?xml version="1.0" encoding="UTF-8" standalone="no"?>
<!DOCTYPE svg PUBLIC "-//W3C//DTD SVG 1.1//EN"
 "http://www.w3.org/Graphics/SVG/1.1/DTD/svg11.dtd">
<!-- Generated by graphviz version 8.1.0 (20230707.0739)
 -->
<!-- Title: G Pages: 1 -->
<svg width="351pt" height="151pt"
 viewBox="0.00 0.00 351.45 150.95" xmlns="http://www.w3.org/2000/svg" xmlns:xlink="http://www.w3.org/1999/xlink">
<g id="graph0" class="graph" transform="scale(1 1) rotate(0) translate(21.6 129.35)">
<title>G</title>
<polygon fill="#111111" stroke="none" points="-21.6,21.6 -21.6,-129.35 329.85,-129.35 329.85,21.6 -21.6,21.6"/>
<!-- App.css -->
<g id="node1" class="node">
<title>App.css</title>
<path fill="none" stroke="#cfffac" d="M177.83,-107.75C177.83,-107.75 129.67,-107.75 129.67,-107.75 125.71,-107.75 121.75,-103.79 121.75,-99.83 121.75,-99.83 121.75,-91.92 121.75,-91.92 121.75,-87.96 125.71,-84 129.67,-84 129.67,-84 177.83,-84 177.83,-84 181.79,-84 185.75,-87.96 185.75,-91.92 185.75,-91.92 185.75,-99.83 185.75,-99.83 185.75,-103.79 181.79,-107.75 177.83,-107.75"/>
<text text-anchor="middle" x="153.75" y="-90.45" font-family="Arial" font-size="14.00" fill="#cfffac">App.css</text>
</g>
<!-- App.tsx -->
<g id="node2" class="node">
<title>App.tsx</title>
<path fill="none" stroke="#c6c5fe" d="M53.08,-65.75C53.08,-65.75 7.92,-65.75 7.92,-65.75 3.96,-65.75 0,-61.79 0,-57.83 0,-57.83 0,-49.92 0,-49.92 0,-45.96 3.96,-42 7.92,-42 7.92,-42 53.08,-42 53.08,-42 57.04,-42 61,-45.96 61,-49.92 61,-49.92 61,-57.83 61,-57.83 61,-61.79 57.04,-65.75 53.08,-65.75"/>
<text text-anchor="middle" x="30.5" y="-48.45" font-family="Arial" font-size="14.00" fill="#c6c5fe">App.tsx</text>
</g>
<!-- App.tsx&#45;&gt;App.css -->
<g id="edge1" class="edge">
<title>App.tsx&#45;&gt;App.css</title>
<path fill="none" stroke="#757575" d="M61.47,-64.26C76.43,-69.44 94.76,-75.79 111.07,-81.44"/>
<polygon fill="#757575" stroke="#757575" points="109.84,-85.06 120.43,-85.03 112.13,-78.45 109.84,-85.06"/>
</g>
<!-- assets/react.svg -->
<g id="node3" class="node">
<title>assets/react.svg</title>
<path fill="none" stroke="#cfffac" d="M202.58,-65.75C202.58,-65.75 104.92,-65.75 104.92,-65.75 100.96,-65.75 97,-61.79 97,-57.83 97,-57.83 97,-49.92 97,-49.92 97,-45.96 100.96,-42 104.92,-42 104.92,-42 202.58,-42 202.58,-42 206.54,-42 210.5,-45.96 210.5,-49.92 210.5,-49.92 210.5,-57.83 210.5,-57.83 210.5,-61.79 206.54,-65.75 202.58,-65.75"/>
<text text-anchor="middle" x="153.75" y="-48.45" font-family="Arial" font-size="14.00" fill="#cfffac">assets/react.svg</text>
</g>
<!-- App.tsx&#45;&gt;assets/react.svg -->
<g id="edge2" class="edge">
<title>App.tsx&#45;&gt;assets/react.svg</title>
<path fill="none" stroke="#757575" d="M61.47,-53.88C68.97,-53.88 77.31,-53.88 85.82,-53.88"/>
<polygon fill="#757575" stroke="#757575" points="85.64,-57.38 95.64,-53.88 85.64,-50.38 85.64,-57.38"/>
</g>
<!-- utils1.ts -->
<g id="node4" class="node">
<title>utils1.ts</title>
<path fill="none" stroke="#c6c5fe" d="M176.71,-23.75C176.71,-23.75 130.79,-23.75 130.79,-23.75 126.83,-23.75 122.88,-19.79 122.88,-15.83 122.88,-15.83 122.88,-7.92 122.88,-7.92 122.88,-3.96 126.83,0 130.79,0 130.79,0 176.71,0 176.71,0 180.67,0 184.62,-3.96 184.62,-7.92 184.62,-7.92 184.62,-15.83 184.62,-15.83 184.62,-19.79 180.67,-23.75 176.71,-23.75"/>
<text text-anchor="middle" x="153.75" y="-6.45" font-family="Arial" font-size="14.00" fill="#c6c5fe">utils1.ts</text>
</g>
<!-- App.tsx&#45;&gt;utils1.ts -->
<g id="edge3" class="edge">
<title>App.tsx&#45;&gt;utils1.ts</title>
<path fill="none" stroke="#757575" d="M61.47,-43.49C76.92,-38.14 95.97,-31.54 112.67,-25.76"/>
<polygon fill="#757575" stroke="#757575" points="113.4,-28.86 121.7,-22.28 111.11,-22.25 113.4,-28.86"/>
</g>
<!-- utils2.ts -->
<g id="node5" class="node">
<title>utils2.ts</title>
<path fill="none" stroke="#cfffac" d="M300.33,-23.75C300.33,-23.75 254.42,-23.75 254.42,-23.75 250.46,-23.75 246.5,-19.79 246.5,-15.83 246.5,-15.83 246.5,-7.92 246.5,-7.92 246.5,-3.96 250.46,0 254.42,0 254.42,0 300.33,0 300.33,0 304.29,0 308.25,-3.96 308.25,-7.92 308.25,-7.92 308.25,-15.83 308.25,-15.83 308.25,-19.79 304.29,-23.75 300.33,-23.75"/>
<text text-anchor="middle" x="277.38" y="-6.45" font-family="Arial" font-size="14.00" fill="#cfffac">utils2.ts</text>
</g>
<!-- utils1.ts&#45;&gt;utils2.ts -->
<g id="edge4" class="edge">
<title>utils1.ts&#45;&gt;utils2.ts</title>
<path fill="none" stroke="#757575" d="M184.81,-11.88C200.16,-11.88 219.06,-11.88 235.69,-11.88"/>
<polygon fill="#757575" stroke="#757575" points="235.23,-15.38 245.23,-11.88 235.23,-8.38 235.23,-15.38"/>
</g>
</g>
</svg>
